<svg xmlns="http://www.w3.org/2000/svg" width="300" height="300" fill="none" xmlns:v="https://vecta.io/nano"><path d="M195.632 91.13h-47.98c-8.556 0-15.28.468-21.193 1.945l.086.247.937 2.605a195.45 195.45 0 0 0 3.423 8.644c2.882 6.793 6.81 14.889 11.029 20.257 3.896 4.958 10.3 10.387 15.764 14.596 2.726 2.099 5.207 3.886 7.006 5.148l2.131 1.472.263.177c1.416-.255 2.896-.384 4.419-.384h24.115V91.13zm-30.119 55.436l-1.486-1.031-7.047-5.18c-5.473-4.215-11.979-9.719-15.972-14.8-4.322-5.5-8.299-13.72-11.187-20.525a198.24 198.24 0 0 1-3.444-8.696l-.944-2.623-.116-.335c-6.621 1.834-12.274 5.021-18.469 10.36-12.543 10.81-18.024 22.353-18.024 39.664v3.291l.037-.1h.001l.055.021.166.061.646.235 2.409.853a267.34 267.34 0 0 0 8.211 2.708c6.582 2.052 14.783 4.309 21.351 5.173 6.236.82 14.283 1.177 20.786 1.328l8.151.105 2.405-.002.646-.004.167-.002h.037c1.668-5.516 6.039-9.062 11.621-10.5zm-76.689 45.18v-43.915l.505.183 2.422.858 8.248 2.72c6.593 2.055 14.875 4.339 21.548 5.216 6.301.829 14.401 1.187 20.911 1.338l8.176.105 2.414-.002.536-.003c-.278 1.253-.425 2.598-.425 4.034v29.447l-.593.163-2.369.627c-2.016.519-4.833 1.211-8.038 1.903-6.424 1.386-14.362 2.762-20.536 2.762s-14.535-1.397-21.382-2.805a256.31 256.31 0 0 1-8.618-1.933l-2.561-.636-.238-.062zm64.335 1.203l-.284.077-2.385.631-8.083 1.914c-6.436 1.389-14.477 2.788-20.784 2.788s-14.766-1.42-21.619-2.829a255.16 255.16 0 0 1-8.659-1.942l-2.522-.626v2.79s20.91 5.13 33.472 5.13 30.863-5.13 30.863-5.13v-2.803z" fill="#3a3a3a"/><path d="M147.484 91.13h47.981s-44.486 12.992-67.618 36.837c-21.929 22.605-39.191 67.785-39.191 67.785v-52.353c0-17.311 5.481-28.854 18.024-39.664 11.987-10.331 21.946-12.605 40.804-12.605z" fill="url(#A)"/><path d="M155.096 205.878v-5.135c0-2.019-1.959-3.482-3.911-2.964-6.179 1.64-18.606 4.533-29.393 4.533-10.006 0-24.299-3.14-31.033-4.766-1.918-.464-3.785.985-3.785 2.958v5.299c0 2.258 1.509 4.232 3.702 4.768 6.72 1.643 21.149 4.861 31.115 4.861 9.885 0 23.336-3.166 29.693-4.821 2.151-.56 3.611-2.51 3.611-4.733zm52.447-119.482c-4.609.545-10.664 1.817-10.664 4.734v26.715 28.035c0 2.405 6.096 3.412 10.71 3.83 2.782.252 5.071-1.997 5.071-4.789v-27.102-26.684c0-2.814-2.323-5.07-5.117-4.739z" fill="#595959"/><defs><radialGradient id="A" cx="0" cy="0" r="1" gradientUnits="userSpaceOnUse" gradientTransform="translate(87.2265 96.4285) rotate(44.7205) scale(48.7649 85.6499)"><stop stop-color="#e6e6e6"/><stop offset="1" stop-opacity="0"/></radialGradient></defs></svg>