<svg xmlns="http://www.w3.org/2000/svg" width="300" height="300" fill="none" xmlns:v="https://vecta.io/nano"><path d="M186.872 129.682c1.033-2.388.239-4.743 1.53-6.988 2.718-4.726 6.082-3.11 8.899-.639 3.44 3.015 2.111 7.547-2.457 9.089-1.055.357-1.254 1.926-2.731 1.455.312 1.138 1.203 1.344 1.849 1.767l33.975 22.184c.946.617 1.856 1.713 2.709-.137.373-.808.9-.163 1.269.072 2.082 1.322 4.56 2.323 6.097 4.123 1.881 2.203 4.653 3.14 6.384 5.189 1.324 1.567 3.792 3.349 1.812 6.178-.604.864.452 1.121.921 1.463 3.592 2.625 6.773 5.647 9.347 9.3 7.06 10.02 5.433 21.342-1.94 30.167-3.059 3.661-6.473 3.888-10.227.962-3.836-2.99-6.486-7.015-9.246-10.92-7.776-11.001-15.49-22.04-25.264-31.443-8.374-8.057-17.711-14.673-28.38-19.336-.643-.28-2.202 0-2.202 0l-11.169-5.989 13.506 3.459c16.196 6.939 29.137 18.028 40.264 31.465 6.832 8.25 12.566 17.303 19.057 25.8 1.455 1.905 3.028 3.715 4.937 5.194 2.6 2.014 4.777 1.98 6.841-.589 4.155-5.169 4.54-11.05 2.478-17.143-2.208-6.521-6.872-11.1-12.33-14.983-.373-.265-.802-.886-1.302-.183-1.892 2.661-4.743 1.503-6.344.542-4.289-2.574-9.143-4.127-13.083-7.299-.713-.574-1.611-.938-.635-2.024.757-.842-.056-1.159-.612-1.477-1.915-1.096-3.403-2.482-4.404-4.566-.851-1.77-2.661-2.431-4.68-2.582-3.335-.249-5.901-1.955-7.503-4.847-1.203-2.171-2.839-3.292-5.31-3.506-3.413-.295-6.028-2.02-7.651-5.044-1.042-1.942-2.5-3.23-4.719-3.213-1.598.013-2.895-.479-4.166-1.346a169.43 169.43 0 0 0-6.008-3.919c-1.133-.705-2.188-1.384-1.76-2.973.151-.561-.219-.842-.589-1.084-6.255-4.089-12.252-8.698-18.895-12.009-2.995-1.492-6.353-2.729-8.604-4.957-2.002-1.983-5.347-3.278-5.549-6.825-.049-.867-.811-1.015-1.32-1.349l-23.671-15.41c-4.535-2.881-9.592-4.069-14.971-3.688-.535.038-1.659-.308-1.435.812.391 1.955-.774 1.968-2.128 2.09-4.57.412-9.293.709-13.632 1.665-4.757 1.049-9.048.337-13.558-.052-1.463-.126-2.225-.793-2.092-2.208.124-1.317-1.339-2.983 1.151-3.831 3.432-1.17 6.481-3.302 10.244-3.721 5.598-.624 11.167-1.511 16.749-2.276 1.037-.142 2.173-.382 2.24 1.24.042 1.027.695.903 1.409.838 7.438-.678 14.178 1.27 20.379 5.358l22.146 14.47c.86.562 1.624 1.077 2.809.594.669-.273 1.609-.281 2.399.117 3.781 1.904 8.112 3.012 11.087 6.108 2.034 2.115 4.234 3.83 6.613 5.45 1.058.721 1.514.639 2.197-.441.958-1.518 1.052-3.13 1.041-4.811-.016-2.411 1.271-4.222 3.03-5.576 1.611-1.24 5.022-.331 6.876 1.526 3.261 3.265 2.113 7.566-2.365 9.27-1.137.433-2.197 1.253-3.085 2.109-1.246 1.2-1.542 2.34.496 3.307 1.673.793 3.154 1.99 4.717 3.012 1.011.661 1.813 1.485 3.293.54 1.131-.722 2.165.6 3.17 1.192l2.096 1.278zm71.586 67.272c.214-1.34.2-2.662-.067-3.997-1.515-7.573-6.319-12.815-12.207-17.284-.67-.508-1.317-1.588-2.34-.231-.998 1.323-.076 1.741.787 2.372 6.657 4.866 11.886 10.771 13.827 19.14z" fill="#373737"/><g fill="#f68b23"><path d="M65.474 97.148c-3.067 4.884-9.422 6.612-15.72 4.159C46.267 99.95 42.791 98.62 39 98.33c3.983-7.903 13.944-13.246 23.98-8.121-4.436-.349-7.721 1.475-10.255 5.279 4.237.645 8.002 3.756 12.459 1.324.086.121.183.233.29.335zm-1.555-6.613l.192.042-.195.02.003-.063z"/><path d="M65.184 96.812l.524-.051-.233.386c-.107-.103-.204-.214-.291-.335z"/></g><path d="M258.458 196.953c-1.941-8.369-7.17-14.273-13.827-19.14-.863-.63-1.784-1.048-.787-2.371 1.023-1.357 1.67-.278 2.34.231 5.888 4.469 10.692 9.71 12.207 17.283.267 1.336.281 2.658.067 3.997z" fill="#5b5d5e"/></svg>