<svg xmlns="http://www.w3.org/2000/svg" width="300" height="300" fill="none" xmlns:v="https://vecta.io/nano"><g fill="#5b5d5e"><path d="M35.063 161.339l1.457-.029 227.213-.001 1.249-.015-.007 5.218-69.398 4.321-5.623.055-143.514.003c-1.38 0-1.391.001-1.386 1.352l.048 6.965-9.671.64c-.31-.519-.426-1.097-.427-1.686v-16.414c0-.136.039-.273.059-.409z"/><path d="M195.577 170.833l69.398-4.321v11.999c-.072 2.108-1.825 3.652-3.932 3.716l-1.666.023H42.663c-1.284 0-2.569-.002-3.853-.031a3.7 3.7 0 0 1-3.38-2.371l9.671-.64c.024.167.087.34.066.501-.101.756.194 1.087.966.972.2-.03.408-.007.612-.008l2.186.003h204.357c1.918-.029 1.655.25 1.667-1.64l-.007-7.073c-.003-.352 0-.778-.156-1.05l-2.74-.012-56.476-.068zm64.287 2.023c.37 1.241 1.373 2.053 2.325 1.953 1.038-.109 1.895-1.039 1.935-2.099.043-1.14-.584-2.034-1.613-2.207-.62-.104-1.243-.065-1.775.364-.486.392-.762.905-.853 1.637-.701-1.601-1.53-2.195-2.676-2.017-.916.142-1.781 1.099-1.813 2.005-.037 1.035.704 1.989 1.769 2.279.938.255 1.81-.344 2.701-1.915z"/></g><g fill="#2d2d2d"><path d="M238.127 118.056l23.43-.037c1.68 0 3.22 1.474 3.418 3.2.016.138.025.277.025.416l-.017 39.661-1.25.015-227.213.001-1.457.029-.005-1.671c.519-.179.329-.624.347-.973l.158-4.339.468-11.375.007.006 4.846 2.349c4.189 2.46 8.789 3.826 13.408 5.101 3.413.942 6.9 1.619 10.397 2.23 2.478.433 4.962.826 7.453 1.116 3.901.454 7.819.803 11.738 1.05 3.844.242 7.701.432 11.551.414 7.974-.038 15.95.253 23.923-.162 3.7-.192 7.411.143 11.117-.203 2.132-.198 4.285-.077 6.431-.171 3.039-.133 6.083-.411 9.134-.275.311.014.627.014.936-.023 3.459-.424 6.942-.537 10.414-.804l5.881-.455 7.6-.809c1.54-.195 3.083-.168 4.623-.264l11.044-.761c1.24-.085 2.492-.072 3.72-.244 3.009-.42 6.046-.474 9.062-.797l6.476-.669 7.47-1.001c2.664-.373 5.313-.871 7.903-1.572 3.661-.991 6.624-3.226 9.351-5.764 2.661-2.476 4.723-5.411 6.2-8.731 1.092-2.454 1.646-5.07 1.681-7.739.03-2.193-.374-4.382-.286-6.587.003-.054.008-.108.015-.162z"/><path d="M35.022 142.589l1.011.394c-.098 3.793-.343 7.581-.468 11.375l-.158 4.339c-.018.349.172.794-.347.973l-.055-10.972.018-6.109z"/><path d="M238.128 118.054l-.016.161c-.351.178-.724.2-1.111.205-10.058.115-20.114-.125-30.174.168-9.878.288-19.766-.08-29.652.207-10.052.291-20.112-.084-30.172.209-9.948.29-19.904-.081-29.86.208-10.087.292-20.183.081-30.276.175l-43.709.279c-.833 0-1.666-.006-2.499.005-2.14.029-3.713 1.616-3.79 3.746l-.368 8.277-.462 11.293-.007-.006-1.011-.393-.015-21.025c.002-1.872 1.607-3.456 3.522-3.556.277-.014.555-.002.833-.002l197.414.001c.45 0 .901.031 1.351.048z"/><path d="M36.04 142.987c.084-3.767.341-7.527.462-11.294l.368-8.277c.077-2.13 1.65-3.717 3.79-3.745l2.499-.006 43.709-.279 30.276-.175c9.955-.289 19.912.082 29.86-.208 10.059-.293 20.12.083 30.172-.209 9.886-.287 19.773.081 29.652-.207 10.059-.293 20.116-.052 30.173-.168.388-.004.761-.027 1.112-.204-.087 2.205.316 4.394.287 6.587a19.62 19.62 0 0 1-1.681 7.739c-1.477 3.32-3.539 6.254-6.2 8.731-2.727 2.538-5.69 4.773-9.352 5.763-2.59.701-5.238 1.2-7.902 1.572l-7.47 1.002c-2.155.26-4.318.439-6.477.669-3.015.323-6.053.377-9.062.797-1.227.172-2.48.158-3.72.244l-11.043.761c-1.54.096-3.084.069-4.624.264-2.527.32-5.063.57-7.599.809-1.958.184-3.921.304-5.882.455-3.471.267-6.954.38-10.414.803a5.61 5.61 0 0 1-.935.024c-3.051-.136-6.095.142-9.135.275-2.146.094-4.298-.027-6.43.171-3.706.345-7.417.01-11.117.203-7.974.414-15.95.124-23.924.162-3.85.018-7.706-.172-11.551-.415-3.92-.247-7.837-.595-11.738-1.049-2.491-.29-4.976-.683-7.453-1.116-3.497-.612-6.984-1.288-10.397-2.23-4.618-1.276-9.219-2.641-13.408-5.101-1.543-.905-3.226-1.572-4.846-2.348z"/></g><path d="M46.746 180.673c-.204.001-.412-.022-.612.008-.773.115-1.067-.216-.967-.972.022-.161-.041-.334-.066-.501l-.049-6.966c-.005-1.35.006-1.352 1.386-1.352l143.514-.002 5.622-.055 1.451.055 53.136.013c-.051.453-.395.397-.703.405l-4.539.163-8.97.418-7.336.265c-.34-.013-.798-.189-.948.36l-5.725.042-173.883.002c-.243 0-.487.012-.729-.002-.373-.023-.593.085-.578.513.063 1.764-.12 3.533.097 5.295-.228.762-.07 1.541-.103 2.311z" fill="#1b1b1b"/><path d="M253.289 180.676l-.029-6.465c.083-1.656.083-1.656-1.566-1.656-3.537 0-7.074.006-10.611-.001l-13.416-.042c.15-.55.608-.374.948-.361 2.451.094 4.89-.194 7.336-.264 2.99-.086 5.981-.264 8.97-.418 1.513-.078 3.026-.124 4.539-.163.308-.008.652.047.703-.405l1.89-.001 2.74.013c.156.393.151.462.156 1.05l.006 7.073c-.011 1.89.252 1.61-1.666 1.64zm6.575-7.819c-.891 1.569-1.437 2.187-2.701 1.914a2.26 2.26 0 0 1-1.769-2.278c.032-.907.897-1.864 1.813-2.006 1.146-.178 1.975.416 2.676 2.017.091-.732.367-1.245.853-1.637.532-.429 1.155-.468 1.775-.364 1.029.173 1.656 1.067 1.613 2.207-.04 1.06-.897 1.99-1.935 2.099-.951.1-1.955-.712-2.325-1.952zm-3.442.932c.834.581 1.763.594 2.328.034.554-.551.548-1.569-.013-2.325-.733-.582-1.756-.627-2.325-.102-.625.577-.622 1.547.01 2.393zm6.662-2.476c-.837-.369-1.735-.496-2.349.256-.476.582-.616 1.381.036 2.053.825.727 1.687.807 2.373.219.755-.648.736-1.421-.06-2.528z" fill="#2d2d2d"/><path d="M254.733 170.91c-.895.302-1.788.317-2.68-.01l2.68.01z" fill="#1b1b1b"/><g fill="#919394"><path d="M46.746 180.672c.033-.77-.125-1.549.103-2.31 1.419.054 2.829-.087 4.244-.16 3.422-.175 6.85-.007 10.282-.184 4.146-.213 8.31-.04 12.464-.244 2.749-.135 5.504-.166 8.258-.217 3.739-.069 7.478.058 11.219-.189 3.21-.211 6.433.032 9.657-.192 3.588-.249 7.197.035 10.801-.218 3.347-.236 6.71.036 10.073-.2 3.553-.249 7.127.037 10.696-.216 3.382-.239 6.78.04 10.177-.201 3.589-.255 7.196.036 10.801-.21 3.4-.233 6.821-.166 10.232-.246 3.496-.081 6.991.081 10.491-.173 3.45-.249 6.918.044 10.385-.206 3.484-.251 6.988.044 10.488-.21 3.415-.249 6.849.039 10.281-.205 3.518-.25 7.057.037 10.592-.212 3.416-.242 6.853-.103 10.28-.178l15.276-.291 4.22-.074c1.829-.054 3.665-.025 5.495-.125l.028 6.465H48.931c-.728 0-1.457-.002-2.185-.004z"/><path d="M227.667 172.512l13.416.042 10.611.001c1.649 0 1.649 0 1.566 1.656l-5.494.125-4.22.074-15.276.291c-3.428.075-6.864-.063-10.28.178-3.535.249-7.074-.038-10.593.212-3.432.244-6.865-.044-10.28.205-3.501.255-7.005-.04-10.489.211-3.466.249-6.935-.044-10.384.206-3.501.253-6.995.091-10.491.172-3.412.08-6.832.013-10.232.246-3.605.247-7.213-.045-10.801.21-3.397.241-6.795-.037-10.177.202-3.569.252-7.143-.034-10.697.215-3.363.236-6.726-.036-10.073.2-3.603.254-7.212-.031-10.8.219-3.225.224-6.447-.02-9.658.192-3.741.246-7.48.119-11.219.188l-8.257.217c-4.155.204-8.319.032-12.465.245-3.432.176-6.859.009-10.282.184-1.415.072-2.825.213-4.244.159-.216-1.762-.034-3.531-.097-5.295-.015-.428.205-.536.578-.514.242.015.486.003.729.003l173.884-.002 5.724-.042z"/></g><path d="M263.084 171.313c.796 1.107.815 1.88.06 2.527-.685.589-1.548.509-2.372-.218.853-.687 1.625-1.456 2.312-2.309z" fill="#186f23"/><path d="M258.737 171.498c.561.756.567 1.774.012 2.325-.564.56-1.493.547-2.328-.034.697-.839 1.447-1.625 2.316-2.291z" fill="#a42d1c"/><path d="M258.737 171.498c-.87.666-1.619 1.452-2.316 2.291-.631-.846-.635-1.816-.009-2.393.569-.525 1.592-.48 2.325.102z" fill="#bc482c"/><path d="M263.084 171.312c-.687.854-1.459 1.623-2.313 2.31-.652-.673-.512-1.472-.037-2.054.615-.751 1.513-.625 2.35-.256z" fill="#298d39"/></svg>